<svg version="1.1" id="Capa_1" xmlns="http://www.w3.org/2000/svg" x="0" y="0" viewBox="0 0 356.3 84.5" style="enable-background:new 0 0 356.3 84.5" xml:space="preserve"><style>.st0{fill:#fff}</style><path class="st0" d="M-14.3-150.9c.6.6 1 1.4 1 2.3 0 1-.3 1.7-1 2.3-.6.6-1.6.9-2.8.9h-2.3v4.6h-1.1v-11h3.4c1.2 0 2.2.3 2.8.9zm-5.1 4.6h2.3c1.8 0 2.6-.8 2.6-2.3 0-1.5-.9-2.3-2.6-2.3h-2.3v4.6z" transform="translate(152.454 224.668)"/><path class="st0" d="m-7.2-140.8-.9-2.6h-5.1l-1 2.6h-1.1l4.1-11h1.1l4 11h-1.1zm-5.8-3.5h4.5l-2.2-6.2-2.3 6.2z" transform="translate(168.798 224.668)"/><path class="st0" d="M-8-145.4v4.6h-1.1v-11h3.4c1.2 0 2.2.3 2.8.9.6.6 1 1.3 1 2.2 0 .9-.2 1.6-.8 2.2-.5.6-1.2.9-2.2 1l3.1 4.7h-1.5l-3-4.6H-8zm0-5.5v4.6h2.3c1.8 0 2.6-.8 2.6-2.3 0-1.5-.9-2.3-2.6-2.3H-8z" transform="translate(186.618 224.668)"/><path class="st0" d="M-3.5-140.8v-11h1.1v11h-1.1z" transform="translate(203.454 224.668)"/><path class="st0" d="M1.4-148.9c0 .4.1.8.3 1.1.2.3.5.5.9.6l1.2.3c.4.1.9.2 1.3.3.4.1.8.3 1.2.5.4.2.7.5.9.9.2.4.4.8.4 1.4 0 .8-.3 1.6-.9 2.2s-1.5.9-2.6.9-2-.2-2.7-.7c-.7-.5-1-1.1-1-2h1.2c0 .5.3.9.6 1.3.4.3 1 .5 1.8.5s1.4-.2 1.9-.6c.5-.4.7-.9.7-1.5s-.2-1.1-.6-1.4c-.4-.3-1-.5-1.6-.6-.6-.1-1.2-.3-1.8-.4-.6-.2-1.2-.5-1.6-.9-.4-.5-.6-1.1-.6-2 0-.8.3-1.5.9-2.1.6-.6 1.5-.8 2.5-.8s1.9.2 2.5.7c.6.5 1 1.1 1.1 1.9H6.1c0-.4-.3-.8-.7-1.2-.4-.3-1-.5-1.7-.5s-1.3.2-1.7.5c-.4.4-.6.9-.6 1.6z" transform="translate(215.694 224.668)"/><path class="st0" d="M-27.4-199.9h-26.1v.4c3 .4 5.6 1.2 5.6 3.8v43c0 2.6-2.6 3.4-5.6 3.8v.4h18.6v-.4c-3-.4-5.6-1.2-5.6-3.8v-14.7h9.7c13.8 0 22.7-7.3 22.7-18 .1-9.8-7.5-14.5-19.3-14.5zm-1.6 31.1c-3.4 0-7.4-.5-11.4-1.6v-28.4h9.2c13.8 0 15.9 8.2 15.9 16.1 0 11.2-4.1 13.9-13.7 13.9z" transform="translate(53.775 201.275)"/><path class="st0" d="m-1.6-158.3-9.1-12.3c9-2.2 14.5-8.2 14.5-15.8 0-9-7.6-13.5-19.4-13.5h-25.7v.4c3 .4 5.6 1.2 5.6 3.8v43c0 2.6-2.6 3.4-5.6 3.8v.4h18.6v-.4c-3-.4-5.6-1.2-5.6-3.8v-16.9h10L-4-149.8v1.2H9.3v-.2c-3.8-1.9-6.6-3.5-10.9-9.5zm-26.6-14.3v-26h8.7c13.8 0 16 7.6 16 14.9 0 10.2-4.1 12.8-13.2 12.8-4-.1-7.6-.6-11.5-1.7z" transform="translate(90.347 201.275)"/><path class="st0" d="M1.3-201c-15.3 0-27.6 10.2-27.6 26.7s12.3 26.7 27.6 26.7 27.6-10.2 27.6-26.7S16.6-201 1.3-201zm2.9 52.1c-13.2 0-22.7-15-22.7-29.8 0-12.4 6.6-21 16.7-21 13.2 0 22.7 15 22.7 29.7.1 12.5-6.5 21.1-16.7 21.1z" transform="translate(128.57 201.275)"/><path class="st0" d="M13-199.9h-26.1v.4c3 .4 5.6 1.2 5.6 3.8v43c0 2.6-2.6 3.4-5.6 3.8v.4H5.5v-.4c-3-.4-5.6-1.2-5.6-3.8v-14.7h9.7c13.8 0 22.7-7.3 22.7-18 .1-9.8-7.5-14.5-19.3-14.5zm-1.6 31.1c-3.4 0-7.4-.5-11.4-1.6v-28.4h9.2c13.8 0 15.9 8.2 15.9 16.1-.1 11.2-4.2 13.9-13.7 13.9z" transform="translate(174.931 201.275)"/><path class="st0" d="M25.2-199.9H-.9v.4c3 .4 5.6 1.2 5.6 3.8v43c0 2.6-2.6 3.4-5.6 3.8v.4h18.6v-.4c-3-.4-5.6-1.2-5.6-3.8v-14.7h9.7c13.8 0 22.7-7.3 22.7-18 .1-9.8-7.5-14.5-19.3-14.5zm-1.6 31.1c-3.4 0-7.4-.5-11.4-1.6v-28.4h9.2c13.8 0 15.9 8.2 15.9 16.1-.1 11.2-4.2 13.9-13.7 13.9z" transform="translate(211.504 201.275)"/><path class="st0" d="M55.4-162.9c-5.7 8.5-9.1 13.1-17.2 13.1H24.3v-23.9h10.3c7.8 0 10 2 11.7 7.4v-16c-1.8 5.4-4 7.4-11.7 7.4H24.3v-23.9h12.3c8.1 0 11.1 3.7 16.1 10.6l.3-.1-2.4-11.7H11.3v.4c3 .4 5.6 1.2 5.6 3.8v41.5c0 2.6-2.6 4.2-5.6 5.3v.4h37.8l2.5 1.6.4-1.6 3.6-14.2-.2-.1z" transform="translate(248.076 201.275)"/><path class="st0" d="m62.6-158.3-9.1-12.3c9-2.2 14.5-8.2 14.5-15.8 0-9-7.6-13.5-19.4-13.5H22.9v.4c3 .4 5.6 1.2 5.6 3.8v43c0 2.6-2.6 3.4-5.6 3.8v.4h18.6v-.4c-3-.4-5.6-1.2-5.6-3.8v-16.9h10l14.3 19.8v1.2h13.3v-.2c-3.8-1.9-6.6-3.5-10.9-9.5zM36-172.6v-26h8.7c13.8 0 16 7.6 16 14.9 0 10.2-4.1 12.8-13.2 12.8-4-.1-7.6-.6-11.5-1.7z" transform="translate(282.998 201.275)"/></svg>